<?xml version="1.0" encoding="utf-8"?>
<!-- Generator: Adobe Illustrator 24.1.2, SVG Export Plug-In . SVG Version: 6.00 Build 0)  -->
<svg version="1.1" id="Layer_1" xmlns="http://www.w3.org/2000/svg" xmlns:xlink="http://www.w3.org/1999/xlink" x="0px" y="0px"
	 viewBox="0 0 32 32" style="enable-background:new 0 0 32 32;" xml:space="preserve">
<style type="text/css">
	.st0{fill:#FFFFFF;stroke:#D1D1D1;}
	.st1{fill:none;stroke:#B3B3B3;stroke-width:1.4;}
</style>
<path class="st0" d="M7,0.5h18c3.6,0,6.5,2.9,6.5,6.5v18c0,3.6-2.9,6.5-6.5,6.5H7c-3.6,0-6.5-2.9-6.5-6.5V7C0.5,3.4,3.4,0.5,7,0.5z"
	/>
<path class="st1" d="M15.7,22c0,0,3.7-2,6.2-6.5c0.7-1.1,0.2-2.6,0-3c-0.6-1.2-1.6-1.8-2-1.9l0,0c-0.5-0.2-0.9-0.3-1.4-0.3l0,0
	c-0.7,0-1.4,0.2-2,0.5l0,0c-0.1,0.1-0.3,0.2-0.4,0.3l-0.4,0.4l-0.4-0.4c-0.1-0.1-0.3-0.2-0.4-0.3l0,0c-0.6-0.4-1.3-0.5-2-0.5
	c-0.5,0-1,0.1-1.4,0.3l0,0c-0.4,0.2-0.8,0.4-1.2,0.8l0,0l0,0C10,11.7,8.4,12.6,9.1,15C10,18.3,15.7,22,15.7,22z M21.1,11.4
	c0.3,0.3,0.6,0.7,0.8,1.1 M9.5,12.5L9.5,12.5 M15.4,21.5L15.4,21.5L15.4,21.5L15.4,21.5"/>
</svg>
