<svg width="200px" height="98.04px" version="1.1" viewBox="0 0 2089 1024" xmlns="http://www.w3.org/2000/svg">
<path d="M1571.778997 1015.571509c-84.654943 0-194.060869-5.509355-234.558741-31.822693l-0.657834-0.493376a226.13025 226.13025 0 0 0-129.387617-40.497872 246.975347 246.975347 0 0 0-110.721593 27.300089c-4.111459 9.086325-17.761503 34.330683-44.157071 34.330683-1.315667 0-2.672448 0-4.111459-0.205573h-238.464627a8.222918 8.222918 0 0 1-8.222918-8.222918v-8.962981l-7.195054-1.192323c-6.372762 8.222918-21.626275 24.668755-41.936882 24.668755h-6.496106c-8.222918 0.246688-23.065285 0.657833-43.005862 0.657833a1458.992371 1458.992371 0 0 1-276.988998-26.395567c-140.15964-27.629005-259.021922-75.239701-353.585482-141.516422a8.222918 8.222918 0 0 1-1.397896-1.274552c-4.604834-5.139324-111.420541-126.468481-35.975267-210.588935 4.111459-10.443106 30.959287-71.621617 69.195857-87.532964a8.222918 8.222918 0 0 1 2.343531-0.616719c2.220188 0 219.05854-22.160764 347.952783-59.040552l1.809042-5.427126a8.222918 8.222918 0 0 1 7.236168-5.632699c0.411146 0 40.415643-2.919136 59.451698-8.222918 4.111459-4.687063 13.156669-13.855617 23.928692-13.855617a8.222918 8.222918 0 0 1 7.52397 4.810407l7.935116-4.111459 1.06898-0.452261c2.836907-0.945636 285.211917-95.632538 343.553521-163.224925 58.999438-68.250221 260.954308-216.797238 301.657753-228.309323C1226.580892 43.211435 1265.96867 8.264033 1282.743423 8.264033a8.222918 8.222918 0 0 1 3.001365 0.575604c2.50799 0.945636 61.178511 25.038786 65.783345 134.444712 15.788003 13.978961 103.444311 88.108568 185.015659 88.108568a111.585 111.585 0 0 0 51.722156-12.00546c0.411146-0.205573 61.34297-34.371798 85.35389-91.43885 23.476431-56.368104 67.386814-92.795632 111.585-92.795632a84.408255 84.408255 0 0 1 21.420702 2.795792 33.590621 33.590621 0 0 1 22.119649 18.419337c11.01871 23.723119 36.304184 89.91761 34.001767 193.238577 8.222918 27.300088 8.880752 40.74456 7.482856 47.610696 4.111459 5.55047 9.333012 14.883482 8.222918 23.229744a15.993576 15.993576 0 0 1-1.891271 5.468241c9.415241 30.136995 50.036457 162.361519 50.365373 205.285152 15.04794 5.303782 34.577371 20.557295 34.824059 51.475468 14.06119 6.167189 44.362644 26.971172 35.317433 89.218662 11.964346 14.307878 54.72352 67.839075 54.106802 103.033165 8.428491 5.221553 24.668755 17.638159 28.574641 37.660965 3.700313 18.09042-3.248053 37.373163-20.557296 57.272625-7.030595 16.445836-72.567253 143.901068-390.91753 143.901068H1657.132887c-3.289167 0.123344-39.099976 1.809042-85.35389 1.809042z" fill="#FFFFFF"/>
<path d="M1282.743423 16.486951s57.354854 22.284108 60.520678 130.579941c0 0 99.168393 92.548944 192.991889 92.548944a119.232313 119.232313 0 0 0 55.463583-12.909982s63.727616-35.029631 89.177548-95.550309c20.557295-49.131936 60.315105-87.779651 104.307717-87.779652a76.719827 76.719827 0 0 1 19.323857 2.50799 25.573276 25.573276 0 0 1 16.774754 13.937847c10.936481 23.517546 35.687465 88.643058 33.220589 190.771701 0 0 12.745523 41.402393 6.372762 47.775155 0 0 15.911347 19.118285 6.372761 25.491046 0 0 57.31374 181.562033 50.940978 213.425841 0 0 38.23657 6.372762 35.029632 50.940978 0 0 47.775155 9.5797 35.070746 86.011725 0 0 60.520678 69.894804 54.147916 105.130008 0 0 60.520678 28.780214 9.538585 85.97061 0 0-53.037822 140.200755-383.84582 140.200755H1657.132887s-36.509757 1.850157-85.230547 1.850156c-79.186702 0-190.648358-4.892636-230.241708-30.507026a232.174095 232.174095 0 0 0-134.526942-42.306914 255.362724 255.362724 0 0 0-117.135469 29.561391s-11.635429 32.069381-37.743195 32.069381c-1.192323 0-2.384646 0-3.659198-0.205573H809.76117v-15.952462l-19.118285-3.165823s-15.911347 25.491046-38.23657 25.491046c-4.111459 0-21.914077 0.822292-49.337509 0.822292-116.272063 0-409.501325-14.59568-625.764073-166.472978 0 0-108.295832-121.041355-35.029631-200.680318 0 0 27.094515-68.455794 65.28997-84.408255 0 0 222.964426-22.284108 353.585482-60.520678l3.165823-9.538585s44.609331-3.206938 63.727616-9.538585c0 0 9.538585-12.745523 19.07717-12.745523v9.456355l19.118285-9.538585s286.692042-95.591424 347.21272-165.650686 270.739581-222.964426 299.39645-226.13025c0 0 54.147916-50.982093 69.894805-50.982093m0-16.445836c-8.222918 0-20.14615 3.535855-51.434353 29.232474-11.5532 9.456356-21.872962 18.830483-26.847828 23.353088-30.548141 10.196419-106.48679 65.125512-139.378463 89.670922-75.034128 55.7925-136.459327 108.336947-164.458364 140.611901-47.19955 54.641291-261.406569 134.568056-339.935437 160.75805a14.348992 14.348992 0 0 0-2.179073 0.904521l-2.384646 1.192324a16.445836 16.445836 0 0 0-9.374127-2.919136c-12.622179 0-22.859713 8.675179-28.492412 14.801252a412.790492 412.790492 0 0 1-55.463583 7.52397 16.445836 16.445836 0 0 0-14.431221 11.183169l-0.452261 1.356782c-128.647555 35.934152-340.182125 57.560427-342.361198 57.560427a17.10367 17.10367 0 0 0-4.687063 1.192323c-40.004497 16.692524-66.81121 75.691962-73.101743 90.739902-32.891673 37.537621-36.6331 87.861881-10.813137 145.751225a320.406007 320.406007 0 0 0 47.73404 74.746326 15.829117 15.829117 0 0 0 2.795792 2.466875c95.344736 66.975669 215.358227 115.120854 356.669076 142.873203a1471.902353 1471.902353 0 0 0 278.756926 26.68337c20.06392 0 35.152975-0.45226 43.25255-0.698948h6.249417c18.008191 0 32.192725-10.401991 41.114591-19.570545a16.445836 16.445836 0 0 0 16.11692 13.197783h238.053481c1.52124 0 3.001365 0.205573 4.48149 0.205573 25.984421 0 42.800289-20.557295 50.488718-36.468642a237.847908 237.847908 0 0 1 104.389946-25.162129 217.907332 217.907332 0 0 1 124.330523 38.771059 13.197784 13.197784 0 0 0 1.233438 0.863406c33.837308 22.037421 114.298563 33.179475 239.040231 33.179475 45.513852 0 80.954629-1.603469 85.559463-1.850157h10.813138c315.307797 0 387.628363-125.64619 397.90701-147.724725 18.54268-21.667389 25.861078-42.964747 21.66739-63.439813a66.893439 66.893439 0 0 0-28.780214-40.580101c-2.590219-35.687465-38.318799-82.475869-53.448968-100.936321 6.742793-54.517947-15.870232-81.776921-35.934153-92.384486a59.410584 59.410584 0 0 0-34.906287-51.475467c-3.083594-46.541717-35.564121-154.467518-49.337509-199.117964a21.1329 21.1329 0 0 0 1.192323-4.810407c1.397896-9.620814-3.124709-19.406087-7.565085-26.354453 0.740063-8.839637-0.781177-23.1064-7.894001-46.829519 2.096844-104.143259-23.599775-171.283386-34.782944-195.41765a41.936883 41.936883 0 0 0-27.505661-22.941942 93.453465 93.453465 0 0 0-23.517546-3.04248c-47.528467 0-94.563559 38.401028-119.232314 97.852727-22.284108 52.873364-78.323296 85.43612-81.818036 87.450734a104.102144 104.102144 0 0 1-47.692925 10.936482c-74.86967 0-156.235445-65.783345-176.792741-83.750422C1353.624977 27.67012 1291.418602 2.220188 1288.705039 1.151209a16.445836 16.445836 0 0 0-5.961616-1.110094z"/>
<path d="M1588.55375 636.289408a8.222918 8.222918 0 0 1-5.057095-1.767927l-146.532402-114.668594a8.222918 8.222918 0 0 1 2.919136-14.390107c164.869509-44.732675 274.892155-168.857625 311.03188-209.684413 4.604834-5.180438 7.894001-8.921866 10.196419-11.224284a575.069782 575.069782 0 0 0 43.745924-53.161166 8.222918 8.222918 0 0 1 6.660564-3.371396h0.822292l43.129206 4.317032a8.222918 8.222918 0 0 1 7.400626 8.222918v8.839637c8.222918 27.382318 8.880752 40.785674 7.482855 47.651811a50.365374 50.365374 0 0 1 7.441741 14.883482 8.222918 8.222918 0 0 1-7.935116 10.319762h-0.740062c-1.932386 0-3.741428-0.246688-5.386012-0.246687a21.544046 21.544046 0 0 0-16.815867 6.249417c-1.52124 1.233438-3.248053 2.672448-5.221553 4.11146-12.046575 10.401991-104.636634 148.999277-107.843572 165.403999 0.411146 8.592949 20.557295 40.785674 39.099976 66.030032a8.222918 8.222918 0 0 1-4.111459 12.663294L1591.349542 635.837148a7.976231 7.976231 0 0 1-2.795792 0.45226z" fill="#830010"/>
<path d="M1811.518176 236.285554l43.129206 4.111459v9.990845s12.745523 41.402393 6.372761 47.775155a50.982093 50.982093 0 0 1 8.839637 15.746888c-2.220188 0-4.111459-0.287802-6.126074-0.287802-15.664659 0-19.282743 6.742793-26.60114 11.635429-9.5797 6.372762-111.50277 156.235445-111.50277 171.982334s40.703445 71.169357 40.703445 71.169357l-177.656148 59.451698-146.532401-114.668594c187.934795-50.982093 305.769212-203.887256 324.805267-222.964426a579.715731 579.715731 0 0 0 44.609332-54.147916m0-16.445837a16.445836 16.445836 0 0 0-13.321128 6.742793 560.227415 560.227415 0 0 1-42.923633 52.215531c-2.425761 2.425761-5.838272 6.249418-10.48422 11.5532-35.769694 40.333414-144.517787 163.101582-307.08488 207.176423a16.445836 16.445836 0 0 0-5.797157 28.780214l146.491287 114.668594a16.774753 16.774753 0 0 0 10.155304 3.49474 16.445836 16.445836 0 0 0 5.221553-0.863407l177.656147-59.451698a16.445836 16.445836 0 0 0 8.017346-25.367703c-18.254878-24.668755-34.618486-51.557697-37.208705-60.644021 8.428491-22.407452 89.91761-144.476672 104.801092-159.689071 1.932386-1.356781 3.535855-2.672448 4.974866-3.823657a13.855617 13.855617 0 0 1 11.594314-4.399261c1.397896 0 2.960251 0 4.645949 0.246687h1.480125a16.445836 16.445836 0 0 0 15.911347-20.557295 54.929093 54.929093 0 0 0-6.783908-14.59568c0.822292-8.839637-0.698948-23.1064-7.852887-46.952863v-7.647313a16.445836 16.445836 0 0 0-14.801252-16.445837L1813.368333 219.921947a11.306512 11.306512 0 0 0-1.644584 0z"/>
<path d="M1571.778997 1015.571509c-84.654943 0-194.060869-5.509355-234.558741-31.822693l-0.657834-0.493376a226.13025 226.13025 0 0 0-129.387617-40.497872 246.687545 246.687545 0 0 0-110.680479 27.300089c-4.111459 9.086325-17.802618 34.330683-44.198185 34.330683-1.315667 0-2.672448 0-4.111459-0.205573h-238.464627a8.222918 8.222918 0 0 1-8.222918-8.222918v-8.962981l-7.195054-1.192323c-6.372762 8.222918-21.626275 24.668755-41.936882 24.668755h-6.496106c-8.222918 0.246688-23.065285 0.657833-43.005862 0.657833a1462.404882 1462.404882 0 0 1-276.988998-26.395567c-140.15964-27.629005-259.021922-75.239701-353.585482-141.516422a8.222918 8.222918 0 0 1-1.397896-1.274552c-4.522605-5.057095-109.940416-124.823898-37.373163-208.944351a8.222918 8.222918 0 0 1 6.208303-2.836907 8.880752 8.880752 0 0 1 2.549105 0.370031 8.222918 8.222918 0 0 1 5.673813 7.112825c0.822292 9.250783 1.726813 20.06392 2.507991 30.753714a62.740866 62.740866 0 0 0 49.049706 56.820364c88.314141 20.022806 259.021922 53.448968 408.761263 53.448968 3.453626-0.53449 20.557295-5.509355 38.565486-10.813137 64.015418-18.666024 183.165502-53.448968 234.353168-53.448968a72.114992 72.114992 0 0 1 13.238898 1.027865c16.075805-7.729543 98.921706-46.2128 152.699591-46.212801a89.794266 89.794266 0 0 1 15.417971 1.233438c50.570947 8.921866 198.336786 26.518911 214.659279 28.451297 19.447201-4.02923 233.243074-55.545812 390.218582-94.769132 10.360877-2.590219 229.953907-52.051072 349.268449-75.034128a9.49747 9.49747 0 0 1 1.52124 0 8.222918 8.222918 0 0 1 2.631334 0.411146c15.171284 3.083594 40.538987 17.638159 40.826789 53.161166 14.06119 6.167189 44.362644 26.971172 35.317433 89.218662 11.964346 14.307878 54.72352 67.839075 54.106802 103.033165 8.428491 5.221553 24.668755 17.638159 28.574641 37.660965 3.700313 18.09042-3.248053 37.373163-20.557296 57.272625-7.030595 16.445836-72.485024 143.901068-390.835301 143.901068H1657.132887c-3.289167 0.123344-39.058861 1.809042-85.35389 1.809042z" fill="#FFFFFF"/>
<path d="M1918.210539 537.203244s38.23657 6.372762 35.029632 50.940978c0 0 47.775155 9.5797 35.070746 86.011724 0 0 60.520678 69.894804 54.147916 105.130009 0 0 60.520678 28.780214 9.538585 85.97061 0 0-52.955593 140.200755-383.84582 140.200755H1657.132887s-36.509757 1.850157-85.230547 1.850156c-79.186702 0-190.648358-4.892636-230.241708-30.507026a232.174095 232.174095 0 0 0-134.526942-42.306914 255.362724 255.362724 0 0 0-117.135469 29.561391s-11.635429 32.069381-37.743195 32.06938c-1.192323 0-2.384646 0-3.659198-0.205573H809.76117v-15.952461l-19.118285-3.165823s-15.911347 25.491046-38.23657 25.491046c-4.111459 0-21.872962 0.822292-49.337509 0.822292-116.272063 0-409.501325-14.59568-625.764073-166.472979 0 0-105.952301-118.492251-37.290934-198.090098 0.863406 9.209668 1.767927 19.940577 2.549105 30.589255a71.333815 71.333815 0 0 0 55.422469 64.262106c85.806151 19.447201 259.021922 53.860114 411.145908 53.860114 8.798522 0 204.54509-64.220991 272.384165-64.220991a57.31374 57.31374 0 0 1 14.266763 1.439011s94.563559-46.623946 151.671725-46.623946a83.051474 83.051474 0 0 1 13.978961 1.110093c54.147916 9.5797 216.591665 28.780214 216.591665 28.780214s226.13025-54.147916 391.780936-95.550309c9.620814-2.384646 230.652855-52.174416 348.775075-74.910785m0-16.445836a16.898097 16.898097 0 0 0-3.206939 0.287802c-119.437886 22.983056-339.318718 72.526138-349.679595 75.116358-153.686341 38.442142-362.055087 88.437485-388.779571 94.851361-22.078535-2.631334-163.636072-19.529431-212.768008-28.20461a97.071549 97.071549 0 0 0-16.815867-1.356781c-53.448968 0-133.005701 36.016382-153.933029 45.924998a87.40962 87.40962 0 0 0-12.00546-0.740063c-52.21553 0-172.105677 34.988517-236.491127 53.736771-16.733638 4.892636-32.603871 9.538585-37.003132 10.48422-148.958163 0-318.309162-33.549506-406.129928-53.448968a54.559062 54.559062 0 0 1-42.635831-49.337509c-0.698948-9.250783-1.562354-19.652774-2.549104-30.877058a16.445836 16.445836 0 0 0-28.780214-9.291897c-32.603871 37.784309-35.934152 88.39637-9.661929 146.450172a320.693809 320.693809 0 0 0 47.117321 73.389545 17.679274 17.679274 0 0 0 2.795792 2.466876c95.344736 66.975669 215.317112 115.120854 356.627962 142.873203a1472.395728 1472.395728 0 0 0 278.222436 26.518911c20.06392 0 35.152975-0.45226 43.25255-0.698948h6.249417c18.008191 0 32.192725-10.401991 41.114591-19.570545a16.445836 16.445836 0 0 0 16.11692 13.197783h238.053481c1.52124 0 3.001365 0.205573 4.48149 0.205573 25.984421 0 42.800289-20.557295 50.488718-36.468642a237.847908 237.847908 0 0 1 104.389946-25.162129 217.907332 217.907332 0 0 1 124.330523 38.771059 13.197784 13.197784 0 0 0 1.233438 0.863406c33.837308 22.037421 114.298563 33.179475 239.040231 33.179475 45.513852 0 80.954629-1.603469 85.559463-1.850157h10.813138c315.348912 0 387.628363-125.64619 397.90701-147.724725 18.54268-21.667389 25.861078-42.964747 21.66739-63.439813a66.893439 66.893439 0 0 0-28.780214-40.580101c-2.590219-35.687465-38.318799-82.475869-53.448968-100.936321 6.742793-54.517947-15.870232-81.776921-35.934153-92.384486a59.862844 59.862844 0 0 0-46.171685-55.381354 17.021441 17.021441 0 0 0-5.180439-0.781177z m0 32.891673z"/>
<path d="M1867.269561 789.194572h-2.220188a10.03196 10.03196 0 0 1-2.261302-0.493376c-49.337509-18.54268-241.342648-37.70208-290.186783-37.702079-20.022806 0-32.110495-4.769293-37.003131-14.59568-5.386011-11.01871 1.644584-22.65414 4.111459-26.313338 9.703043-22.284108 66.728981-47.035092 169.638802-73.636232 77.583233-20.06392 168.569823-37.003132 206.724162-38.853289 18.912712-0.863406 32.439412-4.892636 40.2923-11.964346a8.222918 8.222918 0 0 1 5.509355-2.096844 8.675179 8.675179 0 0 1 3.905886 0.945636c15.417972 8.222918 39.757809 30.835943 30.835943 88.807516a8.592949 8.592949 0 0 1 0 2.713563 8.222918 8.222918 0 0 1-3.782542 5.714928c-31.493777 19.61166-51.968843 39.593351-59.205011 57.560427-18.994941 47.405123-58.75275 49.78977-66.564523 49.78977z" fill="#151517"/>
<path d="M1962.038693 591.721192c13.156669 7.030595 35.440777 27.382318 26.272224 82.516984l0.370031 0.45226c-24.997671 15.58243-52.791135 37.373163-62.494178 61.671886-16.856982 42.142456-51.105436 44.609331-58.917209 44.609331h-1.603469c-50.982093-19.118285-245.289649-38.195455-293.064804-38.195454s-25.449932-28.780214-25.449931-28.780214c15.911347-44.568216 299.396451-105.088894 369.455713-108.295832 23.64089-1.068979 37.455392-6.825022 45.431623-14.020076m0-16.445836a16.445836 16.445836 0 0 0-10.977596 4.111459c-4.399261 4.111459-14.102305 8.880752-35.194089 9.867502-38.812174 1.767927-130.374368 18.953826-208.409862 39.099976a958.463342 958.463342 0 0 0-111.831687 35.070746c-36.509757 14.636794-56.162531 27.834578-62.905324 42.430257-5.961616 8.716293-10.278648 22.078535-4.440376 34.042882 9.415241 19.200514 35.687465 19.200514 44.321529 19.200513 47.117321 0 239.698065 19.323858 287.267647 37.003132a19.364972 19.364972 0 0 0 4.522605 0.98675h2.878021c25.244359 0 57.971573-14.431221 74.006264-54.970208 6.53722-16.445836 26.395567-35.358548 55.956958-53.777884a16.445836 16.445836 0 0 0 7.52397-11.470971 17.021441 17.021441 0 0 0 0-3.823657c3.823657-25.943307 1.603469-47.980728-6.660564-65.454429a66.482293 66.482293 0 0 0-28.780213-30.712599 16.445836 16.445836 0 0 0-7.770658-1.932386z"/>
<path d="M1340.83834 984.406649a8.222918 8.222918 0 0 1-4.933751-1.644584 226.788083 226.788083 0 0 0-128.729784-39.963382 247.386493 247.386493 0 0 0-111.009395 27.382318 7.729543 7.729543 0 0 1-3.659199 0.863406 8.222918 8.222918 0 0 1-7.153939-4.111459 27.711234 27.711234 0 0 1-1.932386-21.996306c-1.891271-14.472336-77.542118-73.183972-104.225487-76.144223-15.171284-1.685698-25.655505-4.522605-27.67012-12.868866a10.689794 10.689794 0 0 1 2.179073-9.209669c3.576969-10.278648 13.115554-21.461816 37.743195-21.461816 22.448567 0 52.873364 8.921866 82.229181 17.55593 7.811772 2.302417 15.623545 4.56372 23.229744 6.701678 26.518911 7.359512 42.553602 8.921866 51.352124 8.921867a32.192725 32.192725 0 0 0 12.128804-1.562355c20.269493-13.321127 208.903236-99.702883 257.624027-109.447041a67.839075 67.839075 0 0 1 12.909981-1.480125c11.224283 0 15.541315 5.01598 17.185899 9.209668 5.01598 12.745523-12.334377 31.411547-22.900827 41.402393l-0.698948 0.575605c-98.675018 73.266201-85.43612 113.517385-75.815305 142.914317 0.822292 2.549105 1.644584 5.01598 2.343531 7.400627a39.593351 39.593351 0 0 1-3.330282 33.13836 8.469606 8.469606 0 0 1-5.46824 3.741428 9.49747 9.49747 0 0 1-1.397896 0.082229z m-180.698627-127.455232z" fill="#D0CABC"/>
<path d="M1431.002637 754.123826c27.67012 0-11.306512 36.386413-11.306512 36.386412-111.50277 82.804786-86.011724 127.455232-76.473139 159.236811a30.959287 30.959287 0 0 1-2.425761 26.436682 233.613105 233.613105 0 0 0-133.663535-41.607966 254.417088 254.417088 0 0 0-114.586364 28.245724 19.858347 19.858347 0 0 1-0.945636-16.240264c3.206938-19.118285-82.804786-82.804786-111.461656-86.011724s-19.07717-9.456356-19.07717-9.456356c3.49474-12.909982 14.760138-17.597045 30.465912-17.597044 26.971172 0 67.057898 13.896732 103.320967 23.969806 26.066651 7.236168 42.882518 9.209668 53.448968 9.209668 12.745523 0 16.445836-2.836907 16.445836-2.836906 19.118285-12.745523 207.05308-98.675018 254.910463-108.295833a57.560427 57.560427 0 0 1 11.306513-1.356781m0-16.445837a75.32193 75.32193 0 0 0-14.554565 1.644584c-49.337509 9.867502-233.160845 93.576809-259.597527 110.06376a34.947402 34.947402 0 0 1-8.51072 0.781177c-8.222918 0-23.517546-1.52124-49.131936-8.634064-7.565085-2.096844-15.500201-4.399261-23.147515-6.660564-29.972537-8.798522-60.931824-17.884847-84.572713-17.884847-13.5267 0-36.674215 3.453626-45.22605 25.737734a18.871597 18.871597 0 0 0-2.878022 15.089055c3.823657 15.664659 23.928692 17.884847 34.74183 19.118285 7.688428 0.822292 29.438047 11.676544 54.641291 30.09588 26.025536 18.994941 38.524372 33.13836 41.772424 38.729945a36.057496 36.057496 0 0 0 3.535855 25.203244 16.445836 16.445836 0 0 0 14.307878 8.222918 16.11692 16.11692 0 0 0 7.359511-1.726813 239.12246 239.12246 0 0 1 107.226853-26.518911 217.907332 217.907332 0 0 1 123.796033 38.318799 16.445836 16.445836 0 0 0 9.867502 3.289167 15.253513 15.253513 0 0 0 3.04248-0.287802 16.445836 16.445836 0 0 0 10.895366-7.441741 47.240665 47.240665 0 0 0 4.11146-39.881153c-0.740063-2.425761-1.562354-4.933751-2.425761-7.565085-9.333012-28.533526-20.927327-64.056533 72.896169-133.745764l1.439011-1.192323c21.708504-20.269493 30.095881-37.249819 24.915442-50.447603-1.726813-4.111459-7.565085-14.390107-24.668754-14.390107z"/>
<path d="M1276.864036 953.324018a8.222918 8.222918 0 0 1-2.425761-0.370031 228.391552 228.391552 0 0 0-67.222356-10.155304 234.353168 234.353168 0 0 0-66.605637 9.826387 9.168554 9.168554 0 0 1-2.302417 0.328917 8.222918 8.222918 0 0 1-7.195053-4.111459 248.373243 248.373243 0 0 0-14.307878-22.900827c-5.386011-7.52397-10.360877-16.445836-6.454991-23.846463 4.358147-8.222918 15.705774-8.222918 24.668755-8.222918H1152.040138c16.11692 0 51.187666-19.364972 82.229182-36.468642 19.200514-10.607564 37.373163-20.557295 51.681041-26.60114a51.475468 51.475468 0 0 1 18.871597-4.892637 13.978961 13.978961 0 0 1 12.868867 6.619449c5.961616 10.114189-2.220188 25.861078-16.075805 50.694291l-2.096844 3.782542c-10.278648 18.460451-13.485586 44.773789-14.431221 58.793865a8.222918 8.222918 0 0 1-8.222919 7.647314z" fill="#FFFFFF"/>
<path d="M1304.821958 834.009476c15.58243 0 0.493375 25.491046-12.334377 48.844134-11.01871 19.817233-14.390107 47.19955-15.459086 62.24749a236.820043 236.820043 0 0 0-69.648117-10.525335 241.794909 241.794909 0 0 0-68.908054 10.155304 263.544527 263.544527 0 0 0-14.801253-23.64089c-12.334377-17.350357-5.509355-19.282743 11.635429-19.282743h17.021441c28.780214 0 98.675018-47.775155 136.952702-63.686501a44.732675 44.732675 0 0 1 15.705773-4.111459m0-16.445837a58.30049 58.30049 0 0 0-21.996306 5.55047 585.266201 585.266201 0 0 0-52.503332 26.971172c-27.094515 14.965711-64.179876 35.440777-78.117723 35.440777h-17.02144c-10.155304 0-25.408817 0-31.987152 12.909982s2.919136 26.60114 7.030595 32.398297a238.875773 238.875773 0 0 1 13.855617 22.078535 16.445836 16.445836 0 0 0 14.348992 8.428492 15.376857 15.376857 0 0 0 4.645949-0.698949 226.459166 226.459166 0 0 1 64.262106-9.456355 219.017426 219.017426 0 0 1 64.796595 9.826387 16.445836 16.445836 0 0 0 21.256243-14.59568c1.603469-22.695254 6.496105-42.882518 13.444471-55.381354l2.05573-3.782542c14.307878-25.61439 24.668755-44.157071 16.03469-58.83498a22.366337 22.366337 0 0 0-19.981691-10.689793z"/>
<path d="M774.813767 821.222838c-10.854252 0-15.58243-4.56372-17.638159-8.222918-4.111459-7.894001 0.411146-16.774753 2.261302-19.776119 2.878021-6.208303 17.227014-20.187264 263.750101-112.119489a8.634064 8.634064 0 0 1 2.878021-0.493375 5.057095 5.057095 0 0 1 1.110094 0c61.671886 8.222918 138.515057 17.473701 149.986028 18.830483 18.666024-4.48149 214.905966-51.557697 369.003452-89.91761a8.222918 8.222918 0 0 1 1.973501-0.246688 8.222918 8.222918 0 0 1 3.453625 15.705774c-66.523408 30.589256-164.78728 79.268931-243.727294 118.368907-73.183972 36.263069-130.991086 64.919939-146.367944 70.84044a66.770096 66.770096 0 0 1-23.353087 5.344897 19.817233 19.817233 0 0 1-17.10367-7.6062 24.422067 24.422067 0 0 1-2.302417-20.228378 132.923472 132.923472 0 0 0 4.111459-28.780214 109.364812 109.364812 0 0 0-30.877058-3.330282c-79.186702 0-235.134345 38.401028-284.266281 54.764635a111.338312 111.338312 0 0 1-32.891673 6.866137z" fill="#77000D"/>
<path d="M1548.138107 617.417811c-125.64619 57.766-357.69694 176.792741-389.601863 189.127118a59.616157 59.616157 0 0 1-20.557296 4.810407c-17.309243 0-11.470971-17.55593-11.47097-17.55593 7.441741-34.6596 3.330282-38.524372 1.110094-38.524372a2.220188 2.220188 0 0 0-1.110094 0.328917 110.06376 110.06376 0 0 0-34.824059-4.111459c-80.255681 0-238.464627 39.017747-286.8565 55.175781a103.608769 103.608769 0 0 1-30.17811 6.578334c-18.789368 0-8.222918-16.11692-8.222918-16.116919 4.851522-12.128804 176.792741-77.459889 259.309724-108.213604 67.386814 9.086325 151.589497 18.994941 151.589497 18.994941s207.464225-49.666426 370.483578-90.452099m0-16.445837h-1.809042a16.856982 16.856982 0 0 0-2.50799 0.452261c-150.767205 37.537621-341.621135 83.339276-367.153296 89.465349-15.376857-1.850157-88.93086-10.607564-148.382559-18.666024a20.105035 20.105035 0 0 0-2.220188 0 16.199149 16.199149 0 0 0-5.756042 1.027865c-43.129206 16.075805-105.787842 39.757809-159.154582 61.26074-97.688268 39.305549-105.787842 47.281779-109.077009 54.80575a28.286839 28.286839 0 0 0-2.137959 27.382317c2.549105 4.769293 9.168554 12.745523 24.874328 12.745524a118.492251 118.492251 0 0 0 35.358548-7.400627c47.322894-15.788003 204.586204-54.353489 281.676062-54.353489a133.375733 133.375733 0 0 1 22.325223 1.52124 197.350036 197.350036 0 0 1-3.412511 20.351722 32.274954 32.274954 0 0 0 3.618084 27.094516 27.875693 27.875693 0 0 0 23.764233 11.01871 74.787441 74.787441 0 0 0 26.313338-5.920501c15.746888-6.043845 73.718461-34.782944 147.108006-71.128242 78.734442-39.017747 176.792741-87.574079 243.069461-118.081105a16.445836 16.445836 0 0 0-4.93375-31.493777h-1.562355z m0 32.891673zM1555.949879 511.671083a7.277283 7.277283 0 0 1-3.330282-13.773388l39.75781-20.228378a6.948366 6.948366 0 0 1 3.289167-0.822292 7.236168 7.236168 0 0 1 6.496105 4.111459 7.318397 7.318397 0 0 1-3.165823 9.826387l-39.75781 20.228379a7.030595 7.030595 0 0 1-3.289167 0.657833z"/>
<path d="M1595.666574 481.081828a3.206938 3.206938 0 0 1 1.439011 6.043845l-39.716695 20.228378a2.960251 2.960251 0 0 1-1.439011 0.328917 3.124709 3.124709 0 0 1-2.836907-1.726813 3.165823 3.165823 0 0 1 1.356782-4.111459l39.757809-20.228379a3.001365 3.001365 0 0 1 1.439011-0.370031m0-8.222918a12.005461 12.005461 0 0 0-5.180439 1.233438l-39.716694 20.269493a11.388742 11.388742 0 0 0 10.360877 20.310608l39.716694-20.228379a11.429856 11.429856 0 0 0-5.180438-21.58516zM1587.813687 540.369068a7.318397 7.318397 0 0 1-3.330282-13.814503l39.716695-20.228379a7.359512 7.359512 0 0 1 9.826387 3.165824 7.318397 7.318397 0 0 1-3.206938 9.826387l-39.716695 20.228379a7.236168 7.236168 0 0 1-3.289167 0.822292z"/>
<path d="M1627.530382 509.862041a3.165823 3.165823 0 0 1 1.43901 6.002731l-39.716694 20.228378a3.165823 3.165823 0 0 1-4.317032-1.397896 3.206938 3.206938 0 0 1 1.397896-4.111459l39.757809-20.228379a2.960251 2.960251 0 0 1 1.439011-0.328916m0-8.222919a11.306512 11.306512 0 0 0-5.180439 1.233438l-39.757809 20.228379a11.388742 11.388742 0 1 0 10.360877 20.310608l39.757809-20.228379a11.388742 11.388742 0 0 0-5.180438-21.708504zM1619.63638 569.025938a7.236168 7.236168 0 0 1-6.496105-4.11146 7.318397 7.318397 0 0 1 3.206938-9.826387l39.716695-20.228378a7.729543 7.729543 0 0 1 3.289167-0.781178 7.277283 7.277283 0 0 1 3.330282 13.773388l-39.716695 20.269494a7.770658 7.770658 0 0 1-3.330282 0.904521z"/>
<path d="M1659.353075 538.313338a3.165823 3.165823 0 0 1 1.480125 6.00273l-39.757809 20.228379a3.001365 3.001365 0 0 1-1.439011 0.370031 3.206938 3.206938 0 0 1-1.43901-6.043844l39.716694-20.228379a3.823657 3.823657 0 0 1 1.439011-0.328917m0-8.222918a11.142054 11.142054 0 0 0-5.139324 1.233438l-39.757809 20.228378a11.388742 11.388742 0 0 0-5.673814 6.660564 11.429856 11.429856 0 0 0 10.854252 14.924597 11.841002 11.841002 0 0 0 5.180439-1.233438l39.757809-20.228379a11.429856 11.429856 0 0 0-5.221553-21.58516zM1738.251975 569.395969a8.222918 8.222918 0 0 1-6.372762-3.04248 199.693568 199.693568 0 0 1-26.60114-44.15707 8.222918 8.222918 0 1 1 15.212399-6.208304 185.591263 185.591263 0 0 0 24.134265 40.21007 8.222918 8.222918 0 0 1-6.372762 13.403357z m-23.558661-89.218662a8.222918 8.222918 0 0 1-4.111459-1.192323 8.222918 8.222918 0 0 1-2.795792-11.265398c5.673814-9.415241 15.04794-23.394202 27.875693-41.566852a8.222918 8.222918 0 0 1 13.444471 9.456356c-12.622179 17.884847-21.790733 31.534891-27.217859 40.580101a8.222918 8.222918 0 0 1-7.195054 3.988116zM1771.308106 398.852646a8.222918 8.222918 0 0 1-6.619449-13.07444c10.114189-13.814503 20.269493-27.505661 29.479162-39.798924a8.222918 8.222918 0 0 1 13.197783 9.867502c-9.209668 12.334377-19.323858 25.902192-29.438047 39.634465a8.222918 8.222918 0 0 1-6.619449 3.371397z m59.28724-79.227817a7.976231 7.976231 0 0 1-4.974865-1.685698 8.222918 8.222918 0 0 1-1.603469-11.512085 99.538424 99.538424 0 0 1 8.222918-9.949731l0.822292-0.575605a8.222918 8.222918 0 0 1 1.192323-0.781177 44.485987 44.485987 0 0 1 22.777483-7.277282 29.766964 29.766964 0 0 1 7.441741 0.904521 8.222918 8.222918 0 0 1-4.111459 15.952461 13.238898 13.238898 0 0 0-3.453626-0.411146 29.026901 29.026901 0 0 0-14.307877 4.851522L1837.132566 316.623464a8.222918 8.222918 0 0 1-6.53722 3.165824zM1596.201064 273.412029q-5.468241 0-11.224284-0.246687c-126.509596-5.756043-208.862122-61.096282-275.015498-105.541155-8.634064-5.797157-17.021441-11.429856-25.326588-16.856982-66.071148-43.046977-105.171123-34.865173-273.658717 107.720228a8.222918 8.222918 0 0 1-10.443106 0l-26.436682-21.050671a8.222918 8.222918 0 0 1 10.278648-12.868867l21.1329 16.856983C1167.869256 104.51329 1217.206765 87.121818 1293.638789 136.993817c8.222918 5.468241 16.815868 11.142054 25.491047 16.980326 67.79796 45.554967 144.682245 97.194893 266.587007 102.786477 118.656709 5.427126 143.037662-81.982494 156.235445-128.935357 1.644584-5.838272 3.04248-10.854252 4.481491-15.171284 13.937846-41.813539 69.894804-58.711636 72.361679-59.410584a8.222918 8.222918 0 1 1 4.645949 15.746888c-0.493375 0-50.200915 15.253513-61.425198 48.885249-1.315667 4.111459-2.672448 8.757408-4.11146 14.390107-13.115554 46.253915-39.67558 141.14639-161.703685 141.14639z"/>
<path d="M1672.304171 394.288926a8.634064 8.634064 0 0 1-2.302417-0.328916c-0.863406-0.246688-84.942745-25.038786-169.104312-52.256645-173.668032-56.162531-178.478439-67.469044-180.9042-73.512889-11.142054-25.573276 25.655505-73.636232 33.13836-83.133703a8.222918 8.222918 0 1 1 12.868867 10.237534c-15.376857 19.323858-35.728579 53.243395-31.288203 65.783345 14.020075 14.924596 181.603148 70.223721 335.083915 115.573115 68.455794-72.690597 169.392114-180.9042 176.134907-191.059504a8.222918 8.222918 0 0 1 13.691159 9.127439c-9.826387 14.719024-163.80053 178.272866-181.315345 196.856661a8.222918 8.222918 0 0 1-6.002731 2.713563z m-337.386332-132.594555z"/>
<path d="M534.252296 548.427528s-22.325223-9.5797-15.952461-22.284109 35.029631-41.443508 35.029631-41.443507-12.334377 2.05573-7.195053-25.408817c-9.291898 0.740063-18.254878 12.704409-18.254878 12.704408-19.118285 6.331647-63.727616 9.538585-63.727616 9.538585l-3.165824 9.538585-1.767927 0.53449a34.371798 34.371798 0 0 0 8.222918 28.163495c22.037421 25.449932 54.065687 31.822693 66.81121 28.65687zM553.329466 567.422468l-140.118525 73.266201s32.316068 19.570545 86.340641 6.825022a698.536899 698.536899 0 0 0 111.009395-38.68883s16.692524-31.61712 74.006263-18.871597 168.076447 44.362644 168.076448 44.362644l152.864049-15.952461s-85.847266-89.054204-133.663535-95.426966c-38.812174-5.180438-224.60901 10.648679-293.105918 16.774753a27.957922 27.957922 0 0 0-25.408818 27.711234z" fill="#D33843"/>
<path d="M1233.652601 528.486951v-3.453626a31.370433 31.370433 0 0 0 7.647314 0.863407c3.659199 0 5.098209-0.698948 5.09821-2.795792s-0.863406-2.425761-5.221554-3.289168c-5.591584-0.98675-7.318397-2.220188-7.318397-5.838272s3.248053-5.879386 9.374127-5.879386a28.780214 28.780214 0 0 1 6.783908 0.740063v3.289167a31.082631 31.082631 0 0 0-6.61945-0.781177c-3.206938 0-4.645949 0.53449-4.645948 2.549104s0.575604 2.05573 4.810407 2.836907c6.167189 1.192323 7.811772 2.549105 7.811772 6.454991s-3.001365 6.043845-9.908616 6.043845a35.358548 35.358548 0 0 1-7.811773-0.740063zM1256.430085 508.423031h8.469605c7.811772 0 10.196419 1.9735 10.196419 6.825022s-2.960251 7.030595-10.196419 7.030595h-3.49474v6.660563h-4.974865z m7.852887 10.730908c4.111459 0 5.714928-0.863406 5.714928-3.823657s-1.480125-3.782542-5.714928-3.782542h-2.878022v7.606199zM1279.413141 518.701678c0-8.222918 4.111459-10.56645 11.841002-10.56645s11.841002 2.261302 11.841002 10.56645-4.111459 10.525335-11.841002 10.525336-11.841002-2.179073-11.841002-10.525336z m18.419337 0c0-5.262668-1.151209-7.359512-6.578335-7.359511s-6.578335 2.096844-6.578334 7.359511 1.192323 7.277283 6.578334 7.277283 6.578335-1.9735 6.578335-7.277283zM1325.050337 525.5267v3.412511h-16.445837v-20.557295h15.705774v3.371396h-10.730908v4.974866h9.949731v3.206938h-9.949731v5.55047zM1345.114257 528.939211l-6.578334-7.729543h-3.453626v7.729543h-5.01598v-20.557295h8.222918c7.195053 0 10.196419 1.726813 10.196419 6.372762a5.468241 5.468241 0 0 1-5.09821 5.961615l7.565085 8.222918z m-7.482855-10.689793c4.111459 0 5.879386-0.53449 5.879386-3.453626s-1.644584-3.248053-5.879386-3.248052h-2.549105V518.084959zM1353.419405 528.486951v-3.453626a31.370433 31.370433 0 0 0 7.647313 0.863407c3.659199 0 5.139324-0.698948 5.139324-2.795792s-0.904521-2.425761-5.262667-3.289168c-5.55047-0.98675-7.318397-2.220188-7.318398-5.838272s3.248053-5.879386 9.374127-5.879386a28.780214 28.780214 0 0 1 6.783908 0.740063v3.289167a31.082631 31.082631 0 0 0-6.619449-0.781177c-3.206938 0-4.645949 0.53449-4.645949 2.549104s0.616719 2.05573 4.810407 2.836907c6.167189 1.192323 7.811772 2.549105 7.811772 6.454991s-3.001365 6.043845-9.908616 6.043845a35.605236 35.605236 0 0 1-7.811772-0.740063zM1323.570212 171.118927c1.562354 1.52124-11.717658 18.337108-36.591986 42.019112-12.334377 11.882117-27.505661 25.367703-44.856019 40.292299a113.5585 113.5585 0 0 1-15.006826 10.854252 82.229182 82.229182 0 0 1-18.131534 7.894002 245.947483 245.947483 0 0 1-38.606601 6.742792 408.966835 408.966835 0 0 0-69.894804 15.788003 148.012527 148.012527 0 0 1-16.445837 4.769293 48.145186 48.145186 0 0 1-18.008191 0.575604 32.480527 32.480527 0 0 1-16.445836-7.647314 29.602505 29.602505 0 0 1-8.222918-14.348992 69.894804 69.894804 0 0 1-0.657834-24.668755c0.740063-6.742793 1.439011-12.581065 2.137959-17.309242 1.397896-9.49747 2.713563-14.719024 3.823657-14.677909s2.014615 5.386011 2.590219 14.965711c0.246688 4.769293 0.493375 10.648679 0.616719 17.432586a69.360315 69.360315 0 0 0 2.590219 20.968442 18.337108 18.337108 0 0 0 5.591585 8.222918 19.981691 19.981691 0 0 0 9.990845 3.741428c7.894001 0.98675 17.062555-2.179073 27.711235-6.167189A352.023127 352.023127 0 0 1 1167.869256 262.598892a263.667871 263.667871 0 0 0 36.304184-5.920501 68.990283 68.990283 0 0 0 15.130169-5.838272 111.790573 111.790573 0 0 0 13.321128-9.04521l46.66506-37.414278c26.60114-21.174014 42.594716-34.906288 44.280415-33.261704z"/>
<path d="M1187.193114 193.526379c-12.704409 0-24.216494-17.761503-41.895768-46.788404-8.222918-13.485586-19.447201-31.904923-24.463182-34.536257a2.795792 2.795792 0 0 0-1.233438-0.246687c-8.222918 0-25.0799 16.03469-33.796193 26.888942a8.222918 8.222918 0 0 1-6.413877 3.083595 8.222918 8.222918 0 0 1-3.49474-0.781178 8.222918 8.222918 0 0 1-4.563719-9.127439c0.411146-2.014615 10.772023-49.625311 57.272625-56.77925a37.784309 37.784309 0 0 1 5.714928-0.411146c19.323858 0 40.292299 14.513451 62.32972 43.170321a310.456276 310.456276 0 0 1 26.518911 41.114591 8.222918 8.222918 0 0 1 0.945635 3.782542c0 18.953826-14.143419 30.63037-36.920902 30.63037z" fill="#6A0606"/>
<path d="M1134.31975 83.051474c40.086726 0 81.571348 79.967879 81.571348 79.967879 0 15.911347-12.745523 22.284108-28.780214 22.284108s-46.911748-72.238336-62.576407-80.379025a10.607564 10.607564 0 0 0-5.01598-1.192323c-16.199149 0-40.21007 29.972537-40.21007 29.972536s9.086325-43.951498 50.488718-50.324259a26.888942 26.888942 0 0 1 4.440376-0.328916m0-16.445837a43.211435 43.211435 0 0 0-6.948366 0.53449c-52.092187 8.017345-63.604272 60.972938-64.097647 63.234241a16.445836 16.445836 0 0 0 9.127439 18.213763 16.158034 16.158034 0 0 0 6.98948 1.562355A16.445836 16.445836 0 0 0 1092.218409 143.942183c8.222918-10.360877 20.06392-20.557295 25.902192-23.270859a265.723601 265.723601 0 0 1 20.14615 30.301454c19.776118 32.398298 31.781579 50.735405 48.926363 50.735405 27.423432 0 45.22605-15.212399 45.22605-38.729945a16.445836 16.445836 0 0 0-1.850157-7.565085 313.580985 313.580985 0 0 0-27.341203-42.471372c-23.682004-30.794829-46.829519-46.377258-68.825825-46.377258z"/>
<path d="M1069.194238 269.958404c-19.447201 0-47.651811-44.527102-62.576407-70.758211l-21.297358 15.212398a8.222918 8.222918 0 0 1-4.769293 1.52124 8.222918 8.222918 0 0 1-4.48149-1.356781 8.222918 8.222918 0 0 1-3.57697-8.551835 124.906127 124.906127 0 0 1 17.679274-39.881153 23.846463 23.846463 0 0 1 20.886212-10.730909 48.227415 48.227415 0 0 1 17.432587 3.782543 79.145587 79.145587 0 0 1 29.273589 20.557295l46.171685 50.899864a8.222918 8.222918 0 0 1 2.137959 5.55047c0.123344 21.174014-13.60893 33.755079-36.879788 33.755079z" fill="#6A0606"/>
<path d="M1011.222665 163.636072a40.867903 40.867903 0 0 1 14.431221 3.206938 71.128242 71.128242 0 0 1 26.189995 18.501566L1097.974452 236.285554c0 15.911347-9.538585 25.449932-28.780214 25.449931s-59.862844-74.581868-59.862844-74.581867l-28.780214 20.557295a117.05324 117.05324 0 0 1 16.445836-37.003132 15.870232 15.870232 0 0 1 14.06119-7.071709m0-16.445837a32.233839 32.233839 0 0 0-27.752348 14.390107 135.061431 135.061431 0 0 0-18.871598 42.800289 16.445836 16.445836 0 0 0 25.69662 16.692524l14.020075-9.990846c4.111459 6.578335 8.880752 14.554565 14.307878 22.571911 21.338473 31.61712 36.016382 44.527102 50.735405 44.527102 27.382318 0 45.22605-16.445836 45.22605-41.895768a16.445836 16.445836 0 0 0-4.111459-11.059825l-46.29503-50.940978a87.491849 87.491849 0 0 0-32.357183-22.736369 56.450333 56.450333 0 0 0-20.557295-4.358147z"/>
<path d="M953.744467 349.515137c-15.253513 0-35.975267-13.115554-48.26853-49.954228-5.879386-17.679274-5.632699-31.16486 0.822292-40.086726a27.67012 27.67012 0 0 1 23.682004-10.607565 51.064322 51.064322 0 0 1 19.693889 4.11146c5.303782 2.425761 16.158034 13.567815 28.780214 61.055167a8.222918 8.222918 0 0 1-0.287802 5.180438c-0.287802 0.657833-6.53722 16.445836-9.826387 22.900828a15.623545 15.623545 0 0 1-14.59568 7.400626z" fill="#6A0606"/>
<path d="M929.980233 256.925078a42.882518 42.882518 0 0 1 16.445837 3.289168c10.730908 4.851522 24.339838 55.669156 24.339837 55.669156s-6.372762 15.952461-9.538585 22.325222a8.222918 8.222918 0 0 1-7.318397 2.919136c-10.319762 0-28.780214-9.333012-40.456757-44.321529-10.772023-32.316068 3.206938-39.881153 16.692524-39.881153m0-16.445836a35.934152 35.934152 0 0 0-30.342568 14.020075c-8.222918 11.183169-8.757408 27.176745-1.973501 47.487353 13.691159 41.114591 37.948767 55.586927 56.080302 55.586927a23.558661 23.558661 0 0 0 21.872962-12.169919c3.371396-6.742793 9.415241-21.831848 10.11419-23.517546a16.445836 16.445836 0 0 0 0.616719-10.360877c-15.664659-58.341604-28.574641-64.179876-33.467277-66.400064a59.369469 59.369469 0 0 0-23.065286-4.769293z"/>
<path d="M680.743583 486.550068a8.222918 8.222918 0 0 1-4.563719-1.356781l-38.195455-25.491047a8.222918 8.222918 0 0 1-3.124709-9.744158l9.291898-24.668754a8.222918 8.222918 0 0 1 4.769292-4.728178c78.405525-29.725849 183.001044-73.389545 236.079981-112.859552a8.222918 8.222918 0 0 1 4.892636-1.603469 8.551835 8.551835 0 0 1 4.111459 0.98675 8.222918 8.222918 0 0 1 4.111459 7.852887L892.812643 386.518269a8.222918 8.222918 0 0 1-4.810407 6.866136l-203.846142 92.384486a8.222918 8.222918 0 0 1-3.412511 0.781177z" fill="#D43237"/>
<path d="M889.893507 314.485506l-5.303782 71.498273-203.846142 92.343371-38.195454-25.449932 9.291897-24.668754c76.185337-28.780214 183.617763-73.471774 238.053481-113.928531m0-16.445837a16.445836 16.445836 0 0 0-9.785272 3.330282c-52.338874 38.894403-156.235445 82.229182-233.900908 111.667229a16.445836 16.445836 0 0 0-9.538585 9.49747l-9.333012 24.463182a16.445836 16.445836 0 0 0 6.249418 19.529431l38.195455 25.491046a16.445836 16.445836 0 0 0 15.911346 1.315667l203.887256-92.384486a16.445836 16.445836 0 0 0 9.5797-13.773388l5.262668-70.881554a13.033325 13.033325 0 0 0 0-1.809042 16.445836 16.445836 0 0 0-16.445837-16.445837z m0 32.891673z"/>
<path d="M583.589805 521.785273a17.227014 17.227014 0 0 1-13.5267-6.989481c-11.964346-14.59568-13.937846-50.982093-8.839637-76.267566 3.001365-15.130169 12.622179-23.764234 26.313338-23.764233a50.817634 50.817634 0 0 1 20.187264 4.933751c8.839637-10.689794 23.928692-14.636794 30.671485-15.911347 11.265398-11.142054 31.61712-13.567815 47.240665-13.567815h4.111459c23.024171-28.081266 71.37493-38.524372 82.969244-40.703445 8.222918-7.236168 41.114591-35.64635 65.454429-41.690195a27.793463 27.793463 0 0 1 6.454991-0.822292 20.968441 20.968441 0 0 1 15.664659 6.866137c12.08769 12.909982 10.607564 40.785674 10.401991 43.910383a8.51072 8.51072 0 0 1-0.740062 2.836906c-8.757408 19.282743-21.420702 23.353088-30.465912 23.353088a41.73131 41.73131 0 0 1-22.366338-7.482855l-93.289006 49.337509c-2.466875 18.912712-18.666024 31.658235-41.114591 31.658235a57.560427 57.560427 0 0 1-28.163495-7.318398 20.022806 20.022806 0 0 0-6.825022-2.836906 22.284108 22.284108 0 0 0-1.562354 2.50799 18.378222 18.378222 0 0 1-16.199149 10.977595c-5.344897 0-12.334377 5.714928-16.445837 10.11419 3.04248 17.268128 0.863406 30.589256-6.45499 39.634465a29.10913 29.10913 0 0 1-20.557296 10.730909 16.445836 16.445836 0 0 1-2.919136 0.493375z" fill="#6A0606"/>
<path d="M844.461884 315.307797c20.557295 0 17.843732 42.019112 17.843733 42.019112-6.496105 14.266763-15.089055 18.501566-22.983057 18.501566a37.332049 37.332049 0 0 1-21.58516-8.962981L715.608756 421.01341c0 19.364972-15.952461 28.533526-33.220589 28.533526a49.090821 49.090821 0 0 1-24.09315-6.249417 23.846463 23.846463 0 0 0-11.142054-4.111459c-9.250783 0-7.606199 13.485586-17.514816 13.485585-12.745523 0-25.491046 15.911347-25.491046 15.911347 9.538585 44.609331-19.118285 44.609331-19.118285 44.609331a10.607564 10.607564 0 0 1-1.603469 0c-14.719024 0-20.557295-42.676945-14.307878-73.430659 2.631334-13.280013 10.278648-17.144784 18.254879-17.144785a51.393239 51.393239 0 0 1 23.147514 7.565085c6.372762-15.911347 31.863808-19.07717 31.863808-19.07717 9.086325-11.388742 31.16486-13.033325 43.088091-13.033325 4.728178 0 7.852887 0.287802 7.852887 0.287802 22.284108-31.493777 82.969244-41.032362 82.969245-41.032362s38.23657-35.070746 63.727615-41.443507a19.940577 19.940577 0 0 1 4.440376-0.575605m0-16.445836a35.358548 35.358548 0 0 0-8.428491 1.068979c-24.668755 6.167189-56.203646 32.357183-67.222356 42.019112-15.335742 3.001365-58.670521 13.485586-82.92813 40.045612h-0.246687c-16.445836 0-37.70208 2.631334-51.146551 14.225648a66.441179 66.441179 0 0 0-28.780214 13.773388 54.929093 54.929093 0 0 0-18.172649-3.453626c-17.720389 0-30.589256 11.347627-34.412913 30.342568-5.55047 27.752349-3.083594 66.441179 10.56645 83.092589a25.655505 25.655505 0 0 0 19.899462 10.03196 21.050671 21.050671 0 0 0 3.206938-0.246688 37.743194 37.743194 0 0 0 26.313338-13.732273c8.222918-10.155304 11.142054-24.175379 8.839638-41.813539a19.61166 19.61166 0 0 1 7.894001-4.892636 24.668755 24.668755 0 0 0 20.968441-11.470971 65.783345 65.783345 0 0 0 31.740464 8.222918c25.203244 0 43.869268-13.732273 48.556332-34.495142l85.641693-45.596081a47.528467 47.528467 0 0 0 22.57191 6.290532c9.374127 0 26.847828-3.659199 37.948768-28.163494a16.445836 16.445836 0 0 0 1.43901-5.714928c0.411146-5.714928 1.562354-34.947402-12.581064-50.077572a29.026901 29.026901 0 0 0-21.66739-9.456356z"/>
<path d="M988.239608 423.973661a8.222918 8.222918 0 0 1-6.496105-13.238898l48.104071-62.247491a8.222918 8.222918 0 1 1 12.992211 10.073075l-48.104071 62.206376a8.222918 8.222918 0 0 1-6.496106 3.206938zM1004.19207 440.830643a8.222918 8.222918 0 0 1-4.974866-1.685698 8.222918 8.222918 0 0 1-1.562354-11.512085L1056.859861 349.515137a8.222918 8.222918 0 1 1 13.07444 9.949731l-59.205011 78.117723a8.222918 8.222918 0 0 1-6.53722 3.248052zM1023.26924 458.633261a8.222918 8.222918 0 0 1-4.687063-1.439011 8.222918 8.222918 0 0 1-2.05573-11.47097l66.523408-95.796997a8.222918 8.222918 0 1 1 13.485586 9.374127l-66.523408 95.796996a8.222918 8.222918 0 0 1-6.742793 3.535855zM1040.784056 473.352285a8.222918 8.222918 0 0 1-6.660564-13.033326l78.117723-107.925801a8.222918 8.222918 0 0 1 13.321127 9.661929l-78.117723 107.925801a8.222918 8.222918 0 0 1-6.660563 3.371397zM1056.530944 484.905485a8.222918 8.222918 0 0 1-6.578335-13.156669l90.4521-120.712439a8.222918 8.222918 0 0 1 13.156669 9.867502l-90.4521 120.712438a8.222918 8.222918 0 0 1-6.578334 3.289168zM1077.047125 494.772986a8.222918 8.222918 0 0 1-4.974866-1.644583 8.222918 8.222918 0 0 1-1.562354-11.512086l95.632538-126.221794a8.222918 8.222918 0 0 1 13.07444 9.949731l-95.591424 126.18068a8.222918 8.222918 0 0 1-6.578334 3.248052zM1108.952047 495.143018a8.222918 8.222918 0 0 1-6.578334-13.156669l92.631173-123.343773a8.222918 8.222918 0 1 1 13.156669 9.867502l-92.631173 123.549345a8.222918 8.222918 0 0 1-6.578335 3.083595zM1137.691146 492.223882a8.222918 8.222918 0 0 1-6.578334-13.156669l90.657673-119.520116a8.222918 8.222918 0 1 1 13.115554 9.949731l-90.657673 119.479001a8.222918 8.222918 0 0 1-6.53722 3.248053zM1168.485975 489.715892a8.222918 8.222918 0 0 1-6.578335-13.156669L1247.467104 361.849514a8.222918 8.222918 0 1 1 13.197784 9.826387l-85.600579 114.545251a8.222918 8.222918 0 0 1-6.578334 3.49474zM1206.105825 486.303381a8.222918 8.222918 0 0 1-6.907251-12.745523l72.813941-111.009396a8.222918 8.222918 0 1 1 13.773388 9.004096l-72.813941 111.009395a8.222918 8.222918 0 0 1-6.866137 3.741428zM1233.652601 483.672047a8.222918 8.222918 0 0 1-4.645948-1.439011 8.222918 8.222918 0 0 1-2.137959-11.429856l69.689231-101.799727a8.222918 8.222918 0 0 1 13.567815 9.291898l-69.689231 101.799726a8.222918 8.222918 0 0 1-6.783908 3.57697zM1262.432815 478.86164a8.222918 8.222918 0 0 1-4.892636-1.603469 8.222918 8.222918 0 0 1-1.685699-11.512086l66.35895-89.218662a8.222918 8.222918 0 0 1 13.07444 9.990846l-66.35895 89.177547a8.222918 8.222918 0 0 1-6.496105 3.165824z" fill="#98938D"/>
<path d="M1016.526447 352.804304s296.230627 9.538585 308.97615 28.780214-44.609331 89.177548-44.609331 89.177547-154.673091 16.445836-196.034369 16.445837a60.972938 60.972938 0 0 1-7.811772-0.370032c-22.284108-3.165823-86.011724-63.686501-95.550309-79.597848s35.029631-54.147916 35.029631-54.147916m0-16.445836a16.445836 16.445836 0 0 0-10.689794 4.111459 236.778929 236.778929 0 0 0-22.983056 22.407452c-6.825022 7.935116-27.67012 32.069381-15.58243 52.21553 10.278648 17.185899 77.089858 83.133703 107.350197 87.450735a71.169357 71.169357 0 0 0 10.114189 0.53449c41.73131 0 191.429535-15.705774 197.761182-16.445836a16.445836 16.445836 0 0 0 11.018711-5.961616 456.371959 456.371959 0 0 0 28.204609-38.976632c21.626275-33.796194 26.971172-55.299125 17.350357-69.894805-5.673814-8.551835-17.350357-13.937846-65.372199-19.735003-26.477797-3.206938-62.288605-6.249418-106.527905-9.04521-75.034128-4.769293-149.492652-7.195053-150.232715-7.195054zM2054.217606 877.796515c-0.616719 0-0.781177-3.412511-0.945636-9.620814a106.897936 106.897936 0 0 0-0.863406-11.306513 40.045611 40.045611 0 0 0-4.481491-13.978961 24.422067 24.422067 0 0 0-12.334377-11.306512 21.338473 21.338473 0 0 0-18.789368 3.453625c-6.660564 4.111459-12.868867 10.401991-21.1329 16.445837a116.60098 116.60098 0 0 1-28.040151 14.924596 177.573918 177.573918 0 0 1-71.333815 9.374127c-25.778848-1.356781-52.462218-7.030595-79.967879-12.622179-6.866137-1.397896-13.814503-2.795792-20.803983-4.11146s-14.348992-2.590219-20.886212-3.165823a51.927728 51.927728 0 0 0-19.118285 1.480125 14.924596 14.924596 0 0 0-10.730908 9.661929 18.254878 18.254878 0 0 0-0.287802 7.688429A46.911748 46.911748 0 0 0 1747.584987 884.004818c2.713563 6.660564 6.496105 13.773388 9.333012 22.242994a54.764635 54.764635 0 0 1 2.631334 14.020075 27.341203 27.341203 0 0 1-0.287802 4.358147 17.967076 17.967076 0 0 1-1.603469 5.386011 15.376857 15.376857 0 0 1-8.634064 7.811773 30.835943 30.835943 0 0 1-7.811772 1.685698l-6.331647 0.740062c-4.111459 0.328917-8.551835 0.657833-12.827753 0.657834a196.322171 196.322171 0 0 1-49.70754-6.331647 340.099896 340.099896 0 0 1-45.22605-15.335743c-28.780214-11.923231-55.011323-25.491046-80.749057-35.810808a312.717578 312.717578 0 0 0-37.948767-12.827753 25.61439 25.61439 0 0 0-7.647314-0.904521 8.798522 8.798522 0 0 0-5.139324 1.809042 15.993576 15.993576 0 0 0-4.563719 12.005461 52.009957 52.009957 0 0 0 2.055729 16.11692 106.897936 106.897936 0 0 1 3.823657 18.501566 34.577371 34.577371 0 0 1-3.330282 20.228378 22.900827 22.900827 0 0 1-7.277282 8.222918 22.366337 22.366337 0 0 1-9.785273 4.111459 37.578736 37.578736 0 0 1-18.049305-1.9735 125.235044 125.235044 0 0 1-14.266763-5.961616 132.306753 132.306753 0 0 0-24.339838-9.744158 83.051474 83.051474 0 0 0-41.114591-1.356781 73.060628 73.060628 0 0 0-23.928692 10.977596c-2.590219 1.644584-4.399261 3.206938-5.714928 4.111459s-2.137959 1.315667-2.343532 1.110094 0-0.98675 1.151209-2.302417a34.12511 34.12511 0 0 1 4.810407-5.468241 63.398699 63.398699 0 0 1 24.257609-14.554565 85.559464 85.559464 0 0 1 44.897133-1.439011 136.377098 136.377098 0 0 1 26.436682 9.127439 125.728419 125.728419 0 0 0 13.238898 4.933751 26.354453 26.354453 0 0 0 12.663294 1.110094 10.278648 10.278648 0 0 0 4.933751-2.261302 11.059825 11.059825 0 0 0 3.576969-4.111459 22.777483 22.777483 0 0 0 1.397896-13.07444 97.44158 97.44158 0 0 0-3.823656-16.199149 62.411949 62.411949 0 0 1-3.04248-20.310608 39.264434 39.264434 0 0 1 1.891271-11.347627 24.298723 24.298723 0 0 1 7.441741-11.01871 22.65414 22.65414 0 0 1 12.827752-5.139324 38.729945 38.729945 0 0 1 12.046575 1.068979 310.579619 310.579619 0 0 1 40.251185 12.786638c26.765599 10.278648 53.448968 23.682004 81.283546 34.988517s57.930459 20.557295 88.848631 20.146149c3.823657 0 7.647314-0.287802 11.429856-0.575604l5.673814-0.657833a23.599775 23.599775 0 0 0 4.111459-0.657834 9.004095 9.004095 0 0 0 0-1.9735 39.017747 39.017747 0 0 0-1.767928-9.333012c-2.179073-6.578335-5.714928-13.444471-8.880751-21.215129a63.357585 63.357585 0 0 1-3.823657-12.827753 33.590621 33.590621 0 0 1 0.945635-15.171284 29.19136 29.19136 0 0 1 8.510721-13.033325 34.042881 34.042881 0 0 1 12.827752-6.98948 65.783345 65.783345 0 0 1 25.203244-1.891272c8.222918 0.822292 15.04794 2.261302 22.366338 3.57697s14.184534 2.919136 21.091785 4.399261c27.58789 6.084959 53.448968 12.046575 77.706576 13.855617a169.967719 169.967719 0 0 0 66.276721-7.071709 108.789207 108.789207 0 0 0 25.984421-12.539951c7.52397-4.892636 14.390107-11.347627 22.489682-15.746888a36.509757 36.509757 0 0 1 13.033325-4.56372 25.532161 25.532161 0 0 1 13.238898 1.809042 30.918172 30.918172 0 0 1 15.335742 15.705774 42.635831 42.635831 0 0 1 3.618084 16.445836 70.593753 70.593753 0 0 1-0.657833 11.882117c-0.904521 6.413876-1.850157 9.620814-2.384646 9.5797zM820.204276 1003.237132c0 0.493375-1.397896 1.233438-4.111459 0.863406a16.445836 16.445836 0 0 1-10.360877-6.907251 21.091785 21.091785 0 0 1-3.659199-8.716294 23.188629 23.188629 0 0 1 1.151209-11.347627 35.893038 35.893038 0 0 1 17.638159-19.118284 137.363848 137.363848 0 0 1 27.546776-9.250783c9.49747-2.672448 19.529431-5.756043 30.013651-9.415242s21.297358-7.770658 32.357183-12.334377 22.613025-10.114189 34.988517-15.006826a190.278327 190.278327 0 0 1 37.866538-11.265397 122.809283 122.809283 0 0 1 19.241629-1.644584 95.056934 95.056934 0 0 1 18.62491 1.809042 91.97334 91.97334 0 0 1 32.028266 12.622179 77.624348 77.624348 0 0 1 21.790733 20.557296 68.579138 68.579138 0 0 1 12.909981 40.374528c-0.246688 10.114189-2.878021 15.212399-3.823656 15.006826s-0.863406-5.55047-2.549105-14.513451a72.731711 72.731711 0 0 0-15.788003-33.796194 69.894804 69.894804 0 0 0-19.570545-16.116919 82.229182 82.229182 0 0 0-27.629005-9.374127 94.892476 94.892476 0 0 0-32.398298 0.781177 190.154983 190.154983 0 0 0-34.618485 10.648679c-11.799888 4.687063-23.353088 9.949731-34.865173 14.59568s-22.941942 8.716293-33.878423 12.08769-21.502931 6.043845-31.411548 8.222918a149.821569 149.821569 0 0 0-25.819963 6.496105 27.341203 27.341203 0 0 0-14.307877 12.334378 15.911347 15.911347 0 0 0-1.850157 7.071709 16.199149 16.199149 0 0 0 7.277283 13.238898c1.891271 0.945636 3.248053 1.397896 3.206938 2.096845zM524.508138 1000.564683c-0.411146 0.411146-1.891271-0.287802-4.111459-2.220188a42.471372 42.471372 0 0 1-8.675179-10.073074 36.098611 36.098611 0 0 1-4.111459-9.209669 30.095881 30.095881 0 0 1-0.822291-12.334377 27.13563 27.13563 0 0 1 5.920501-13.814503 24.668755 24.668755 0 0 1 6.825022-5.550469 31.658235 31.658235 0 0 1 8.222918-2.960251c20.557295-4.111459 43.417008-4.687063 68.209106-10.319762s52.051072-13.691159 81.571348-20.886212 59.122782-11.635429 86.340641-8.59295a65.125512 65.125512 0 0 1 20.557296 4.440376 32.891673 32.891673 0 0 1 9.703043 6.290532 32.398298 32.398298 0 0 1 6.53722 9.086325 44.485987 44.485987 0 0 1 4.111459 18.953826 58.629407 58.629407 0 0 1-2.261302 16.939212 78.981129 78.981129 0 0 1-12.704409 25.203244 119.766803 119.766803 0 0 1-13.814503 15.335742c-8.222918 7.606199-13.238898 11.10094-14.020075 10.319763s2.713563-5.879386 9.250783-14.59568a181.109773 181.109773 0 0 0 10.895367-16.158034 76.596483 76.596483 0 0 0 9.086324-22.859713 50.24203 50.24203 0 0 0 0.904521-13.650044 32.891673 32.891673 0 0 0-3.700313-13.238898 17.309243 17.309243 0 0 0-9.5797-8.222918 54.435718 54.435718 0 0 0-16.445836-2.672449c-24.668755-2.05573-52.379989 2.50799-81.077973 9.456356s-56.409219 15.253513-82.558099 19.776118-50.488718 4.440376-68.743596 6.825022a15.911347 15.911347 0 0 0-9.49747 4.111459 18.54268 18.54268 0 0 0-4.687064 8.469606 27.464547 27.464547 0 0 0 1.60347 17.10367 85.641693 85.641693 0 0 0 5.46824 10.813137c1.356781 2.384646 2.014615 3.864772 1.603469 4.234803z"/>
<path d="M187.820754 906.94676c-0.246688 0.45226-2.302417 0.246688-5.673814-1.685698a28.204609 28.204609 0 0 1-11.142054-13.033326 30.959287 30.959287 0 0 1 1.52124-27.546776 32.398298 32.398298 0 0 1 12.704408-12.745523 39.963382 39.963382 0 0 1 19.570546-4.604834 65.536658 65.536658 0 0 1 20.803983 3.741428 137.980567 137.980567 0 0 1 20.06392 8.962981c13.197784 6.98948 25.984421 15.746888 39.963382 22.242993 28.040151 13.321127 62.987553 17.884847 99.702883 16.445837s72.197222-6.660564 105.130009-8.510721c4.111459-0.246688 8.222918-0.411146 12.334377-0.575604H515.010668a34.577371 34.577371 0 0 1 13.937846 2.878021 19.940577 19.940577 0 0 1 6.825022 5.303783 18.09042 18.09042 0 0 1 3.618084 7.894001 26.025536 26.025536 0 0 1-1.603469 14.102305 38.606601 38.606601 0 0 1-6.167189 10.56645 65.28997 65.28997 0 0 1-16.158034 13.691158c-5.55047 3.49474-10.689794 6.126074-15.335742 8.880752a76.308681 76.308681 0 0 0-11.964346 8.428491 32.398298 32.398298 0 0 0-7.400627 9.250783 25.532161 25.532161 0 0 0-2.50799 9.620814 20.187264 20.187264 0 0 0 3.494741 13.362242c1.932386 2.631334 3.576969 3.741428 3.289167 4.358147s-2.384646 0.370031-5.632699-2.014615a21.420702 21.420702 0 0 1-7.52397-15.58243 30.219224 30.219224 0 0 1 1.644584-12.704408 37.578736 37.578736 0 0 1 8.222918-12.827753c7.277283-7.935116 17.720389-13.732273 27.258973-20.557295a56.820365 56.820365 0 0 0 12.62218-11.841002 27.217859 27.217859 0 0 0 3.823657-7.236168 12.951096 12.951096 0 0 0 0.616719-6.866137 4.399261 4.399261 0 0 0-3.001366-3.206938 21.831848 21.831848 0 0 0-8.222918-1.192323h-5.427126l-5.797157 0.328916-11.841002 0.863407c-31.987152 2.549105-67.427929 8.634064-105.746728 9.826387a285.006344 285.006344 0 0 1-56.162531-3.289167 178.971814 178.971814 0 0 1-50.653176-16.034691c-15.335742-7.688428-27.834578-16.980326-39.963382-23.969806s-23.764234-12.334377-34.618486-12.992211a29.725849 29.725849 0 0 0-14.431221 2.261303 23.188629 23.188629 0 0 0-9.703044 8.222918 24.668755 24.668755 0 0 0-3.371396 20.557295 30.835943 30.835943 0 0 0 7.153939 12.334378c2.261302 3.124709 3.782542 4.358147 3.535855 4.892636zM790.396197 711.816912c-1.068979 0.740063-7.606199-8.222918-20.927326-22.818598a228.926042 228.926042 0 0 0-26.066651-24.298724 145.011162 145.011162 0 0 0-40.251185-22.736368 111.009395 111.009395 0 0 0-54.230145-5.797158 92.055569 92.055569 0 0 0-28.492411 9.661929c-9.49747 4.892636-18.994941 11.183169-29.72585 17.062555a147.149121 147.149121 0 0 1-35.358548 13.978961 228.144865 228.144865 0 0 1-38.606601 6.08496c-13.115554 1.027865-26.354453 1.315667-39.634465 1.52124a334.837228 334.837228 0 0 1-41.114591-1.192323 111.338312 111.338312 0 0 1-41.484622-12.334378 161.703686 161.703686 0 0 1-32.480527-25.0799 194.4309 194.4309 0 0 0-27.834578-23.147515 103.52654 103.52654 0 0 0-31.16486-12.334377c-10.977596-2.713563-22.201879-4.48149-33.261704-6.331647l-32.069381-5.344897-57.560427-9.785272c-35.152975-6.167189-63.563157-11.388742-83.133703-15.376857s-30.301453-6.742793-30.178109-7.852887 11.224283-0.53449 31.123745 1.52124 48.515217 5.509355 83.91488 10.196418l57.848229 7.852887 32.23384 4.522605c11.01871 1.562354 22.57191 3.124709 34.536256 5.879386a117.135469 117.135469 0 0 1 35.934152 13.896732 202.366016 202.366016 0 0 1 30.465912 24.668755 150.109371 150.109371 0 0 0 29.232474 22.695254 94.769132 94.769132 0 0 0 35.481892 10.155304 327.313258 327.313258 0 0 0 39.264434 1.192323c13.238898 0 26.107765-0.328917 38.606601-1.233438 25.038786-1.644584 48.309644-6.578335 68.044648-17.309243 10.073075-5.303782 19.858347-11.512085 30.383683-16.445836a104.883321 104.883321 0 0 1 32.891672-10.278648 120.959126 120.959126 0 0 1 60.602907 8.099575 145.792339 145.792339 0 0 1 41.895768 26.765598 189.743837 189.743837 0 0 1 25.079901 27.21786c12.128804 16.03469 16.856982 26.231109 16.03469 26.724484zM1127.494728 686.161407c-1.356781 1.562354-30.794829-20.557295-72.567253-63.275355a124.536096 124.536096 0 0 1-15.829118-18.460452 56.861479 56.861479 0 0 1-6.372761-12.334377 34.001767 34.001767 0 0 1-1.932386-15.58243 30.918172 30.918172 0 0 1 6.578335-15.58243 37.455392 37.455392 0 0 1 13.362242-10.196418 86.093953 86.093953 0 0 1 30.465911-6.660564c39.346663-2.096844 82.229182-4.111459 127.455232-5.920501s88.190797-3.371396 127.455232-4.56372l28.780213-0.822292c9.250783-0.246688 18.419337-0.53449 27.464547 0a115.120854 115.120854 0 0 1 26.313338 4.111459 100.648518 100.648518 0 0 1 22.736369 9.661929 136.706015 136.706015 0 0 1 31.904922 26.395568 231.064001 231.064001 0 0 1 18.953827 24.052035c9.456356 13.773388 13.732273 21.955192 12.868867 22.613025s-7.030595-6.290532-17.884847-18.666024c-5.468241-6.167189-12.128804-13.650044-20.557296-21.544046a136.459327 136.459327 0 0 0-30.877057-22.654139 90.822131 90.822131 0 0 0-20.351723-7.565085 104.389946 104.389946 0 0 0-23.517546-2.549104c-8.222918 0-17.227014 0.45226-26.477796 0.945635l-28.780214 1.52124c-39.099976 2.014615-82.229182 4.111459-127.249659 5.879386s-88.314141 3.371396-127.249658 4.604835a73.266201 73.266201 0 0 0-25.285474 4.687063 19.036056 19.036056 0 0 0-12.334377 14.390107 29.849193 29.849193 0 0 0 5.468241 19.364972 118.57448 118.57448 0 0 0 13.650044 17.432587c38.894403 43.581466 65.454429 68.908054 63.809845 70.717096zM1020.308989 288.994459c-4.440376 0.657833-9.49747-11.059825-7.52397-25.696619a42.471372 42.471372 0 0 1 6.043845-17.597045c2.713563-4.111459 5.673814-6.043845 7.770658-5.303782 4.111459 1.685698 4.111459 12.581065 2.466875 25.038786s-4.193688 22.983056-8.757408 23.55866zM1102.579286 320.734923c0 4.56372-11.347627 7.729543-25.038786 7.153939s-24.668755-4.810407-24.257609-9.415241 11.470971-7.606199 25.038786-7.030595 24.380952 4.56372 24.257609 9.291897zM1201.213189 322.955111c0 4.522605-11.306512 7.935116-24.874327 7.565085s-24.668755-4.111459-24.422067-8.839637 11.224283-7.935116 24.874327-7.565085 24.586525 4.317032 24.422067 8.839637zM1299.435947 330.725769c-0.657833 4.522605-12.005461 6.98948-25.367703 5.591584s-23.969806-6.208303-23.682004-10.730908 11.717658-7.07171 25.408817-5.591584 24.380952 6.249418 23.64089 10.730908zM1372.784377 380.967799c-2.302417-0.205573-4.111459-3.083594-5.879387-6.496105a123.713804 123.713804 0 0 0-7.400626-11.923232c-3.206938-4.440376-6.578335-8.51072-9.086325-11.923231s-4.111459-6.331647-3.083594-8.222918 4.48149-2.754678 9.497471-1.233438a31.69935 31.69935 0 0 1 16.03469 12.005461 28.410182 28.410182 0 0 1 5.55047 20.06392c-0.863406 5.262668-3.453626 7.935116-5.632699 7.729543zM1330.230775 469.323055c-3.741428-2.631334-0.53449-13.567815 6.208304-24.997672s14.842367-19.447201 18.953826-17.432586 2.343532 13.814503-4.810407 25.819963-16.692524 19.200514-20.351723 16.610295zM1310.906918 224.526781c-4.111459-1.767927-2.754678-13.978961 4.604834-25.984422s16.445836-18.994941 20.351722-16.445836 0.616719 13.691159-6.249418 25.038786-14.513451 19.036056-18.707138 17.391472zM1333.519943 305.399181c-0.822292 2.096844-4.111459 3.124709-9.086325 2.549105a34.083996 34.083996 0 0 1-17.843732-8.222919 27.341203 27.341203 0 0 1-9.867502-18.624909c0-5.55047 1.850157-8.634064 4.111459-8.880752s4.522605 2.261302 7.030595 5.262668a87.245162 87.245162 0 0 0 9.5797 9.867502c8.181804 7.030595 17.802618 13.650044 16.075805 18.049305zM1426.891178 337.18076c-1.397896 4.317032-13.033325 4.317032-25.984421 0s-22.325223-11.265398-20.845098-15.58243 13.115554-4.111459 25.984422 0 22.284108 11.224283 20.845097 15.58243zM1521.166935 366.413234c-1.274552 4.358147-12.909982 4.645949-25.984421 0.698948s-22.57191-10.689794-21.215129-15.04794 12.992211-4.645949 25.984421-0.698948 22.489681 10.689794 21.215129 15.04794zM1616.018296 393.219947c-1.192323 4.399261-12.827752 5.01598-25.984421 1.397896s-22.818598-10.114189-21.58516-14.51345 12.868867-4.974865 25.943307-1.356782 22.900827 10.114189 21.626274 14.472336zM1922.979832 513.151209c-1.356781 1.767927-13.197784-4.769293-31.205975-16.815868-9.004095-6.00273-19.529431-13.403357-31.08263-21.790733-5.756043-4.111459-11.758773-8.222918-18.213764-13.691159a59.163896 59.163896 0 0 1-17.309243-21.502931 41.114591 41.114591 0 0 1-3.165823-14.636794 78.117723 78.117723 0 0 1 0.698948-13.115555 135.67815 135.67815 0 0 1 5.01598-23.1064 127.455232 127.455232 0 0 1 17.391472-35.728579 24.668755 24.668755 0 0 1 6.98948-7.030595 17.350357 17.350357 0 0 1 8.962981-2.425761 39.593351 39.593351 0 0 1 11.758773 2.179073c5.632699 1.767927 8.634064 2.05573 8.962981 3.206938s-3.289167 3.04248-9.703044 3.124709a65.372199 65.372199 0 0 0-10.155304 0.616719c-3.371396 0.863406-4.687063 2.05573-6.948366 6.454991a156.646591 156.646591 0 0 0-12.827752 33.67285 141.557536 141.557536 0 0 0-3.576969 20.803983 38.68883 38.68883 0 0 0 1.603469 19.570545c4.851522 11.470971 18.830483 20.351722 29.64362 29.602505s20.845098 17.432587 28.780213 24.668755c16.486951 14.431221 25.778848 24.134265 24.380953 25.943307zM1804.816498 552.127841c-1.192323 0.205573-2.549105-2.878021-5.344897-7.852887a243.727295 243.727295 0 0 0-13.403357-20.557296 117.793303 117.793303 0 0 1-9.374127-15.623544 54.600177 54.600177 0 0 1-5.920501-21.996306 43.540352 43.540352 0 0 1 1.562355-12.992211 33.960652 33.960652 0 0 1 6.783907-12.868867 27.752349 27.752349 0 0 1 13.650044-8.634064 37.003132 37.003132 0 0 1 15.253514-0.863406 59.040552 59.040552 0 0 1 25.038786 10.48422 145.340079 145.340079 0 0 1 17.802617 14.842368 247.427608 247.427608 0 0 1 25.984422 27.957921c13.567815 17.268128 18.460451 30.17811 16.445836 31.247089s-10.196419-9.04521-25.244359-23.476431c-7.482856-7.236168-16.733638-15.541315-27.423432-24.422067a162.155946 162.155946 0 0 0-16.651409-12.745523 46.2128 46.2128 0 0 0-18.378222-7.606199 22.078535 22.078535 0 0 0-8.634064 0.328916 12.08769 12.08769 0 0 0-5.920501 3.535855 23.764234 23.764234 0 0 0-5.262668 15.13017 43.869268 43.869268 0 0 0 3.248053 16.692523 166.102947 166.102947 0 0 0 6.907251 15.13017 95.673653 95.673653 0 0 1 9.415241 24.339838c1.274552 6.249418 0.53449 9.826387-0.534489 9.949731z"/>
</svg>