<?xml version="1.0" encoding="utf-8"?>
<!-- Generator: Adobe Illustrator 24.1.2, SVG Export Plug-In . SVG Version: 6.00 Build 0)  -->
<svg version="1.1" id="Layer_1" xmlns="http://www.w3.org/2000/svg" xmlns:xlink="http://www.w3.org/1999/xlink" x="0px" y="0px"
	 viewBox="0 0 32 32" style="enable-background:new 0 0 32 32;" xml:space="preserve">
<style type="text/css">
	.st0{fill:#FFFFFF;stroke:#D1D1D1;}
	.st1{fill:#B3B3B3;}
</style>
<path class="st0" d="M8,0.5h16c4.1,0,7.5,3.4,7.5,7.5v16c0,4.1-3.4,7.5-7.5,7.5H8c-4.1,0-7.5-3.4-7.5-7.5V8C0.5,3.9,3.9,0.5,8,0.5z"
	/>
<path class="st1" d="M20.7,15.1h-3.5v-3.5c0-1.3-2.1-1.3-2.1,0v3.5h-3.5c-1.3,0-1.3,2.1,0,2.1h3.5v3.5c0,1.3,2.1,1.3,2.1,0v-3.5h3.5
	C22,17.2,22,15.1,20.7,15.1z"/>
</svg>
