<?xml version="1.0" encoding="utf-8"?>
<!-- Generator: Adobe Illustrator 24.1.2, SVG Export Plug-In . SVG Version: 6.00 Build 0)  -->
<svg version="1.1" id="Layer_1" xmlns="http://www.w3.org/2000/svg" xmlns:xlink="http://www.w3.org/1999/xlink" x="0px" y="0px"
	 viewBox="0 0 110 110" style="enable-background:new 0 0 110 110;" xml:space="preserve">
<style type="text/css">
	.st0{fill:#25B7D3;}
	.st1{fill:#0484AB;}
	.st2{fill:#059BBF;}
	.st3{fill:#DF2C2C;}
	.st4{fill:#E2E4E5;}
	.st5{fill:#FA5655;}
	.st6{fill:#21B2D1;}
	.st7{fill:#FACB1B;}
	.st8{fill:#FBE158;}
	.st9{fill:#FFFFFF;}
</style>
<g id="Artboard">
</g>
<g id="Multicolor">
	<circle class="st0" cx="55" cy="55" r="55"/>
	<g>
		<g>
			<path class="st1" d="M97,27.7l-24.3-9.8c-2.3-1-5-0.3-6.7,1.6c-6.7,16.1-25.6,37.4-39.5,36.3h-9.8c-6.3,0-10.3,6.8-10.3,13V69
				c0,5.1,1.7,8.5,9,11s32.3,2.3,32.3,2.3h47.2c3.3,0,5.9-2.6,5.9-5.9v-5.9V35.1v-1.9C100.7,30.8,99.2,28.7,97,27.7z"/>
		</g>
		<g>
			<path class="st2" d="M72.7,17.9c-2.3-1-5-0.3-6.7,1.6c-6.7,16.1-25.6,37.4-39.5,36.3h-9.8c-6.3,0-10.3,6.8-10.3,13V69
				c0,5.1,1.7,8.5,9,11c2,0.6,5.3,1.2,9,1.5l59.2-59.2L72.7,17.9z"/>
		</g>
		<g>
			<path class="st3" d="M100.7,68.1c-33.9,0-25.8,5.4-45.7,5.4c-19.4,0-47-5.6-48.6-5.9c0,0.4-0.1,0.8-0.1,1.3V69
				c0,5.1,1.7,8.5,9,11s32.3,2.3,32.3,2.3h47.2c3.3,0,5.9-2.6,5.9-5.9C100.7,76.4,100.7,68.1,100.7,68.1z"/>
		</g>
		<g>
			<path class="st4" d="M100.7,76.4c0,3.3-2.6,5.9-5.9,5.9H47.6c0,0-25,0.2-32.3-2.3c-3.1-1.1-5.1-2.2-6.5-3.6c0.1,0,0.3,0,0.4,0
				c64.9,2.9,73.7,0,73.7,0H100.7z"/>
		</g>
		<g>
			<path class="st5" d="M6.4,67.5c0,0.4-0.1,0.8-0.1,1.3V69c0,5.1,1.7,8.5,9,11c2,0.6,5.3,1.2,9,1.5l9.5-9.5
				C20,70.3,7.5,67.7,6.4,67.5z"/>
		</g>
		<g>
			<path class="st6" d="M54.5,73.5h3c0-9.5,11.9-19.3,23.5-19.3c7.8,0,14.8-2,19.8-5.6v-3.8c-4.3,4.1-11.5,6.5-19.8,6.5
				C67.6,51.2,54.5,62.2,54.5,73.5z"/>
		</g>
		<g>
			<path class="st7" d="M37.8,51.2c-1.2,1-1.4,2.5-0.6,3.8l4.3,7c0.4,0.6,1.1,1.2,1.9,1.3c0.7,0.2,1.6,0,2.2-0.4l16.6-11
				c0.7-0.5,1.2-1.3,1.3-2.1c0.1-0.8-0.2-1.8-0.8-2.3l-7.3-7.3c-1.1-1.1-2.8-1.2-4-0.2L37.8,51.2z"/>
		</g>
		<g>
			<path class="st3" d="M100.7,33.2v11.5c-4.3,4.1-11.5,6.5-19.8,6.5c-3.1,0-6,0.5-8.9,1.6c-9.1-6.7-15.1-16-15.8-16.9
				c4.1-5.4,7.6-11.1,9.7-16.3c1.7-1.9,4.3-2.5,6.7-1.6l24.2,9.8C99.2,28.7,100.7,30.8,100.7,33.2z"/>
		</g>
		<g>
			<path class="st5" d="M41.5,62l-4.4-7c-0.3-0.5-0.4-1.2-0.4-1.7c-3.6,1.8-7.1,2.8-10.3,2.5h-9.8c-4.3,0-7.6,3.3-9.2,7.4
				c1.4,0,22.2,9,34.6-0.5C41.9,62.4,41.8,62.2,41.5,62z"/>
		</g>
		<g>
			<path class="st8" d="M55.4,40c-1.1-1.1-2.8-1.2-4-0.2L37.8,51.2c-1.2,1-1.4,2.5-0.6,3.8l4.3,7c0.3,0.4,0.7,0.8,1.2,1.1l17.9-17.9
				L55.4,40z"/>
		</g>
		<g>
			<path class="st8" d="M72.7,17.9l8.8,3.6c-0.3-6.2-1.9-9.9-4.3-9.9c-1.5,0-5.6,5.7-5.8,6C71.7,17.6,72.2,17.7,72.7,17.9z"/>
		</g>
		<g>
			<path class="st5" d="M72.7,17.9c-2.3-1-5-0.3-6.7,1.6c-2.1,5.2-5.6,11-9.7,16.3c0.3,0.5,2.4,3.8,5.9,7.8l21.4-21.4L72.7,17.9z"/>
		</g>
		<g>
			<path class="st9" d="M9.3,76.4c-0.1,0-0.3,0-0.4,0c1.4,1.4,3.4,2.6,6.5,3.6c2,0.7,5.5,1.2,9.3,1.5l4.3-4.3
				C23.1,77.1,16.6,76.7,9.3,76.4z"/>
		</g>
		<g>
			<path class="st7" d="M77.3,42.4c-2.1,3-6.2,3.7-9.2,1.6l-11.4-8.1c-1.4-1-1.6-2.8-0.7-4.1l4.2-6c1-1.4,2.8-1.6,4.1-0.7l11.4,8.1
				C78.8,35.3,79.4,39.5,77.3,42.4z"/>
		</g>
		<g>
			<path class="st8" d="M64.3,25.1c-1.4-1-3.2-0.6-4.1,0.7l-4.2,6c-1,1.4-0.6,3.2,0.7,4.1l7.7,5.5l9.5-9.5L64.3,25.1z"/>
		</g>
	</g>
</g>
</svg>
